<?xml version="1.0" encoding="UTF-8"?>
<svg width="612px" height="131px" viewBox="0 0 612 131" version="1.1" xmlns="http://www.w3.org/2000/svg" xmlns:xlink="http://www.w3.org/1999/xlink">
    <!-- Generator: Sketch 46.2 (44496) - http://www.bohemiancoding.com/sketch -->
    <title>bandsintown 1.5 clr</title>
    <desc>Created with Sketch.</desc>
    <defs></defs>
    <g id="Bandsitown-Logo-1.5" stroke="none" stroke-width="1" fill="none" fill-rule="evenodd">
        <g id="bandsintown-1.5-clr">
            <g id="Group" transform="translate(44.000000, 27.000000)">
                <path d="M122.053985,45.4414346 C122.053985,38.5569179 117.663346,33.7058824 110.922879,33.7058824 C104.181895,33.7058824 99.7917738,38.5569179 99.7917738,45.4414346 C99.7917738,52.3256931 104.181895,57.1764706 110.922879,57.1764706 C117.663346,57.1764706 122.053985,52.3256931 122.053985,45.4414346 Z M99.8678124,58.3835364 L99.7105132,58.3835364 L99.7105132,63.8044183 L92,63.8044183 L92,8 L99.7105132,8 L99.7105132,32.3939686 L99.8678124,32.3939686 C102.150207,28.4082581 106.162633,25.777768 112.142337,25.777768 C121.740959,25.777768 129.845758,33.1114228 129.845758,45.388884 C129.845758,57.6660822 121.740959,65 112.142337,65 C106.162633,65 102.150207,62.368984 99.8678124,58.3835364 Z M135.411311,45.4411765 C135.411311,33.1964527 143.515425,25.8823529 153.114887,25.8823529 C159.094987,25.8823529 163.10733,28.5058289 165.389419,32.4809116 L165.546974,32.4809116 L165.546974,27.0744843 L173.257069,27.0744843 L173.257069,63.8076063 L165.546974,63.8076063 L165.546974,58.401179 L165.389419,58.401179 C163.10733,62.3759995 159.094987,65 153.114887,65 C143.515425,65 135.411311,57.6856379 135.411311,45.4411765 Z M166.578406,45.4414346 C166.578406,38.5569179 162.188183,33.7058824 155.446784,33.7058824 C148.705126,33.7058824 144.316195,38.5569179 144.316195,45.4414346 C144.316195,52.3256931 148.705126,57.1764706 155.446784,57.1764706 C162.188183,57.1764706 166.578406,52.3256931 166.578406,45.4414346 Z M216.66838,41.2572795 L216.66838,63.8823529 L208.968711,63.8823529 L208.968711,42.6118036 C208.968711,36.3190745 205.825338,33.6891321 200.639433,33.6891321 C194.98385,33.6891321 190.975252,37.1146011 190.975252,46.27643 L190.975252,63.8823529 L183.275064,63.8823529 L183.275064,27.0768256 L190.975252,27.0768256 L190.975252,32.6536596 L191.13233,32.6536596 C193.489536,28.4318754 197.418817,25.8823529 202.997157,25.8823529 C210.775366,25.8823529 216.66838,30.1041371 216.66838,41.2572795 Z M224.460154,45.388884 C224.460154,33.1114228 232.564175,25.777768 242.164095,25.777768 C248.143539,25.777768 252.155965,28.4082581 254.438619,32.3939686 L254.596438,32.3939686 L254.596438,8 L262.305913,8 L262.305913,63.8044183 L254.596438,63.8044183 L254.596438,58.3835364 L254.438619,58.3835364 C252.155965,62.368984 248.143539,65 242.164095,65 C232.564175,65 224.460154,57.6660822 224.460154,45.388884 Z M255.627249,45.4414346 C255.627249,38.5569179 251.237128,33.7058824 244.495627,33.7058824 C237.754384,33.7058824 233.365039,38.5569179 233.365039,45.4414346 C233.365039,52.3256931 237.754384,57.1764706 244.495627,57.1764706 C251.237128,57.1764706 255.627249,52.3256931 255.627249,45.4414346 Z M268.984576,61.1038942 L272.444965,54.1877425 C275.826226,56.1743525 279.680703,57.6854247 284.004763,57.6854247 C287.70202,57.6854247 289.667785,56.5722516 289.667785,54.2666928 C289.667785,52.7556207 288.881946,51.6432345 285.813567,50.1319 L279.208525,46.8715934 C273.703501,44.2478728 271.579998,40.5117659 271.579998,36.2985474 C271.579998,29.5389849 276.535271,25.8823529 284.47746,25.8823529 C288.645597,25.8823529 293.206525,26.9952637 297.060223,28.7450228 L293.914791,35.5027493 C291.161631,34.3098391 287.78037,33.1174534 284.240852,33.1174534 C280.86011,33.1174534 279.759053,34.2308888 279.759053,35.9001238 C279.759053,37.649096 280.7815,38.7625314 283.92745,40.2733413 L290.689972,43.532861 C295.408638,45.7592072 297.92545,48.9389898 297.92545,53.8687938 C297.92545,61.3425812 292.263206,65 283.769452,65 C278.579127,65 273.152713,63.5689273 268.984576,61.1038942 Z M305.717224,63.8823529 L305.717224,27 L313.508997,27 L313.508997,63.8823529 L305.717224,63.8823529 Z M356.920308,41.2572795 L356.920308,63.8823529 L349.22028,63.8823529 L349.22028,42.6118036 C349.22028,36.3190745 346.077538,33.6891321 340.891652,33.6891321 C335.235027,33.6891321 331.226243,37.1146011 331.226243,46.27643 L331.226243,63.8823529 L323.526992,63.8823529 L323.526992,27.0768256 L331.226243,27.0768256 L331.226243,32.6536596 L331.383587,32.6536596 C333.74194,28.4318754 337.670367,25.8823529 343.250522,25.8823529 C351.027797,25.8823529 356.920308,30.1041371 356.920308,41.2572795 Z M376.378676,33.7333477 L376.378676,52.9336166 C376.378676,55.5515139 377.460066,56.7421572 380.084225,56.7421572 L381.935598,56.7421572 L381.935598,63.8823529 L378.462522,63.8823529 C372.211494,63.8823529 368.815059,60.4711297 368.815059,54.4412239 L368.815059,33.7333477 L362.485861,33.7333477 L362.485861,27.1480352 L368.815059,27.1480352 L368.815059,12.4705882 L376.378676,12.4705882 L376.378676,27.1480352 L383.634961,27.1480352 L383.634961,33.7333477 L376.378676,33.7333477 Z M427.046272,45.4411765 C427.046272,56.7316705 418.493532,65 407.010805,65 C395.527294,65 386.974293,56.7316705 386.974293,45.4411765 C386.974293,34.151207 395.527294,25.8823529 407.010805,25.8823529 C418.493532,25.8823529 427.046272,34.151207 427.046272,45.4411765 Z M395.879177,45.4414346 C395.879177,52.5600376 400.66361,57.1764706 407.567614,57.1764706 C414.470583,57.1764706 419.254499,52.5600376 419.254499,45.4414346 C419.254499,38.3220572 414.470583,33.7058824 407.567614,33.7058824 C400.66361,33.7058824 395.879177,38.3220572 395.879177,45.4414346 Z M484.928021,27 L472.794199,63.8823529 L465.749879,63.8823529 L457.139379,37.4587698 L448.451152,63.8823529 L441.406315,63.8823529 L429.272494,27 L437.727279,27 L445.006074,53.5839686 L453.382873,27 L460.818157,27 L469.19444,53.5839686 L476.475043,27 L484.928021,27 Z M525,41.2572795 L525,63.8823529 L517.30055,63.8823529 L517.30055,42.6118036 C517.30055,36.3190745 514.157314,33.6891321 508.97069,33.6891321 C503.314369,33.6891321 499.305616,37.1146011 499.305616,46.27643 L499.305616,63.8823529 L491.606684,63.8823529 L491.606684,27.0768256 L499.305616,27.0768256 L499.305616,32.6536596 L499.464255,32.6536596 C501.821552,28.4318754 505.750208,25.8823529 511.329283,25.8823529 C519.107275,25.8823529 525,30.1041371 525,41.2572795 Z M315.735219,13.587974 C315.735219,16.6743186 313.244609,19.1764706 310.170056,19.1764706 C307.095763,19.1764706 304.604113,16.6743186 304.604113,13.587974 C304.604113,10.5016295 307.095763,8 310.170056,8 C313.244609,8 315.735219,10.5016295 315.735219,13.587974 Z" id="Combined-Shape-Copy" fill="#FFF"></path>
                <g id="Page-1-Copy" fill="#00CEC8">
                    <polygon id="Fill-1" points="58 40 73 40 73 0 58 0"></polygon>
                    <polygon id="Fill-2" points="38 40 53 40 53 21 38 21"></polygon>
                    <polygon id="Fill-3" points="19 40 34 40 34 21 19 21"></polygon>
                    <polygon id="Fill-4" points="0 0 0 77.9900881 56.824283 77.9900881 57.8954132 78 73 78 73 45.2598833 19.3852232 45.2598833 19.3852232 59.5747017 57.8954132 59.5747017 57.8954132 63.6722961 15.1075001 63.6722961 15.1075001 0"></polygon>
                </g>
            </g>
        </g>
    </g>
</svg>